<svg width="46" height="56" viewBox="0 0 46 56" fill="none" xmlns="http://www.w3.org/2000/svg">
<g filter="url(#filter0_d_13_179)">
<mask id="path-1-inside-1_13_179" fill="white">
<path d="M35.7364 25.4696C35.802 32.5822 41.9321 34.9491 42 34.9793C41.9482 35.1462 41.0205 38.3524 38.7704 41.6641C36.8253 44.5272 34.8065 47.3798 31.6263 47.4389C28.5014 47.4969 27.4966 45.5727 23.924 45.5727C20.3525 45.5727 19.2361 47.3798 16.278 47.4969C13.2083 47.6139 10.8708 44.4008 8.90948 41.5482C4.9018 35.713 1.8391 25.0593 5.95153 17.8679C7.9945 14.2967 11.6454 12.0352 15.6082 11.9772C18.6226 11.9193 21.4678 14.0195 23.3105 14.0195C25.152 14.0195 28.6096 11.4938 32.2443 11.8647C33.766 11.9285 38.0372 12.4837 40.7799 16.5268C40.5589 16.6648 35.6834 19.5232 35.7364 25.4696V25.4696ZM29.8636 8.00425C31.4933 6.01754 32.5902 3.25185 32.291 0.5C29.9419 0.595084 27.1013 2.0765 25.4163 4.06212C23.9062 5.82049 22.5837 8.63486 22.9406 11.3322C25.5589 11.5363 28.2338 9.99223 29.8636 8.00426"/>
</mask>
<path d="M35.7364 25.4696C35.802 32.5822 41.9321 34.9491 42 34.9793C41.9482 35.1462 41.0205 38.3524 38.7704 41.6641C36.8253 44.5272 34.8065 47.3798 31.6263 47.4389C28.5014 47.4969 27.4966 45.5727 23.924 45.5727C20.3525 45.5727 19.2361 47.3798 16.278 47.4969C13.2083 47.6139 10.8708 44.4008 8.90948 41.5482C4.9018 35.713 1.8391 25.0593 5.95153 17.8679C7.9945 14.2967 11.6454 12.0352 15.6082 11.9772C18.6226 11.9193 21.4678 14.0195 23.3105 14.0195C25.152 14.0195 28.6096 11.4938 32.2443 11.8647C33.766 11.9285 38.0372 12.4837 40.7799 16.5268C40.5589 16.6648 35.6834 19.5232 35.7364 25.4696V25.4696ZM29.8636 8.00425C31.4933 6.01754 32.5902 3.25185 32.291 0.5C29.9419 0.595084 27.1013 2.0765 25.4163 4.06212C23.9062 5.82049 22.5837 8.63486 22.9406 11.3322C25.5589 11.5363 28.2338 9.99223 29.8636 8.00426" fill="#F2F4F7"/>
<path d="M35.7364 25.4696L36.7364 25.4604L34.7364 25.4696H35.7364ZM42 34.9793L42.955 35.2759L43.2186 34.4269L42.4064 34.0656L42 34.9793ZM38.7704 41.6641L37.9433 41.1021L37.9432 41.1021L38.7704 41.6641ZM31.6263 47.4389L31.6448 48.4387H31.6448L31.6263 47.4389ZM16.278 47.4969L16.3161 48.4962L16.3176 48.4961L16.278 47.4969ZM8.90948 41.5482L8.08518 42.1143L8.08546 42.1147L8.90948 41.5482ZM5.95153 17.8679L5.08352 17.3714L5.08345 17.3715L5.95153 17.8679ZM15.6082 11.9772L15.6228 12.9771L15.6274 12.977L15.6082 11.9772ZM32.2443 11.8647L32.1428 12.8596L32.1726 12.8626L32.2025 12.8639L32.2443 11.8647ZM40.7799 16.5268L41.3095 17.3751L42.1906 16.825L41.6075 15.9655L40.7799 16.5268ZM35.7364 25.4696L34.7365 25.4785L36.7364 25.4696H35.7364ZM32.291 0.5L33.2851 0.391894L33.1841 -0.536969L32.2506 -0.499182L32.291 0.5ZM25.4163 4.06212L26.1749 4.71365L26.1788 4.70915L25.4163 4.06212ZM22.9406 11.3322L21.9492 11.4634L22.0554 12.2663L22.8629 12.3292L22.9406 11.3322ZM34.7365 25.4788C34.7722 29.3574 36.4736 31.9715 38.1755 33.6024C39.0205 34.4121 39.864 34.9793 40.5026 35.3473C41.1441 35.717 41.5981 35.895 41.5936 35.893L42.4064 34.0656C42.3147 34.0248 36.7957 31.8888 36.7364 25.4604L34.7365 25.4788ZM41.045 34.6828C40.9985 34.8323 40.1059 37.9192 37.9433 41.1021L39.5975 42.2261C40.7693 40.5015 41.5935 38.8098 42.1314 37.5299C42.4009 36.8887 42.5998 36.3479 42.7354 35.9541C42.8033 35.7571 42.8553 35.5969 42.8923 35.4794C42.9252 35.375 42.9564 35.2715 42.955 35.2759L41.045 34.6828ZM37.9432 41.1021C36.9611 42.5477 36.0285 43.8839 34.976 44.8749C33.9429 45.8476 32.8692 46.4156 31.6077 46.4391L31.6448 48.4387C33.5636 48.4031 35.0893 47.5153 36.347 46.3311C37.5852 45.1652 38.6345 43.6436 39.5976 42.226L37.9432 41.1021ZM31.6077 46.4391C30.2847 46.4636 29.4315 46.0849 28.3422 45.6107C27.2232 45.1235 25.9232 44.5727 23.924 44.5727V46.5727C25.4974 46.5727 26.4861 46.984 27.5439 47.4444C28.6313 47.9178 29.8429 48.4722 31.6448 48.4387L31.6077 46.4391ZM23.924 44.5727C21.9387 44.5727 20.62 45.085 19.4791 45.5708C18.3543 46.0499 17.5038 46.4476 16.2385 46.4977L16.3176 48.4961C18.0103 48.4291 19.197 47.8648 20.2627 47.411C21.3125 46.9639 22.3377 46.5727 23.924 46.5727V44.5727ZM16.2399 46.4976C15.0903 46.5414 13.9885 45.9698 12.8645 44.9089C11.7394 43.8469 10.7199 42.4162 9.73351 40.9816L8.08546 42.1147C9.06041 43.5327 10.1903 45.1349 11.4917 46.3633C12.7943 47.5929 14.396 48.5693 16.3161 48.4962L16.2399 46.4976ZM9.73379 40.982C7.8119 38.1837 6.09852 34.1959 5.37044 30.0439C4.64094 25.8838 4.9206 21.6852 6.81962 18.3644L5.08345 17.3715C2.87003 21.2421 2.62483 25.9659 3.4005 30.3893C4.17757 34.8208 5.99939 39.0774 8.08518 42.1143L9.73379 40.982ZM6.81954 18.3645C8.69993 15.0774 12.0388 13.0295 15.6228 12.9771L15.5936 10.9773C11.2521 11.0408 7.28907 13.5159 5.08352 17.3714L6.81954 18.3645ZM15.6274 12.977C16.917 12.9522 18.2174 13.3907 19.5331 13.9074C20.1617 14.1543 20.8287 14.4328 21.4298 14.6385C22.0299 14.8437 22.6803 15.0195 23.3105 15.0195V13.0195C23.0193 13.0195 22.6231 12.9328 22.0772 12.7461C21.5323 12.5597 20.9541 12.3168 20.2643 12.0459C18.9432 11.527 17.3138 10.9442 15.589 10.9774L15.6274 12.977ZM23.3105 15.0195C23.9607 15.0195 24.6661 14.8043 25.3117 14.5713C25.9371 14.3455 26.7584 14.0029 27.4583 13.7385C28.9834 13.1625 30.5707 12.6991 32.1428 12.8596L32.3459 10.8699C30.2832 10.6594 28.3244 11.2735 26.7516 11.8675C25.9026 12.1882 25.2871 12.4539 24.6326 12.6901C23.9984 12.919 23.5811 13.0195 23.3105 13.0195V15.0195ZM32.2025 12.8639C33.6102 12.9229 37.4768 13.4388 39.9524 17.0882L41.6075 15.9655C38.5977 11.5287 33.9218 10.9342 32.2862 10.8656L32.2025 12.8639ZM40.2504 15.6786C40.2996 15.6479 40.1595 15.7346 40.1554 15.7372C40.1007 15.7715 40.0289 15.8174 39.9426 15.8749C39.7704 15.9899 39.5416 16.1505 39.276 16.3578C38.746 16.7714 38.0638 17.3749 37.3899 18.1767C36.0389 19.784 34.7073 22.2085 34.7365 25.4785L36.7364 25.4607C36.6887 20.1089 41.0852 17.5151 41.3095 17.3751L40.2504 15.6786ZM36.7364 25.4696V25.4696H34.7364V25.4696H36.7364ZM30.6368 8.63848C32.3972 6.4924 33.6196 3.46717 33.2851 0.391894L31.2969 0.608106C31.5609 3.03652 30.5895 5.54268 29.0905 7.37003L30.6368 8.63848ZM32.2506 -0.499182C29.5867 -0.39136 26.4954 1.24493 24.6538 3.4151L26.1788 4.70915C27.7071 2.90807 30.297 1.58153 32.3314 1.49918L32.2506 -0.499182ZM24.6576 3.41061C23.0352 5.29978 21.5425 8.3891 21.9492 11.4634L23.9319 11.2011C23.625 8.88061 24.7772 6.34119 26.1749 4.71363L24.6576 3.41061ZM22.8629 12.3292C25.9006 12.5659 28.8673 10.7968 30.637 8.63826L29.0903 7.37026C27.6003 9.18769 25.2173 10.5066 23.0183 10.3353L22.8629 12.3292Z" fill="black" mask="url(#path-1-inside-1_13_179)"/>
</g>
<defs>
<filter id="filter0_d_13_179" x="0" y="0.5" width="46" height="55" filterUnits="userSpaceOnUse" color-interpolation-filters="sRGB">
<feFlood flood-opacity="0" result="BackgroundImageFix"/>
<feColorMatrix in="SourceAlpha" type="matrix" values="0 0 0 0 0 0 0 0 0 0 0 0 0 0 0 0 0 0 127 0" result="hardAlpha"/>
<feOffset dy="4"/>
<feGaussianBlur stdDeviation="2"/>
<feComposite in2="hardAlpha" operator="out"/>
<feColorMatrix type="matrix" values="0 0 0 0 0 0 0 0 0 0 0 0 0 0 0 0 0 0 0.25 0"/>
<feBlend mode="normal" in2="BackgroundImageFix" result="effect1_dropShadow_13_179"/>
<feBlend mode="normal" in="SourceGraphic" in2="effect1_dropShadow_13_179" result="shape"/>
</filter>
</defs>
</svg>
